<svg width="236" height="26" viewBox="0 0 236 26" fill="none" xmlns="http://www.w3.org/2000/svg">
<path fill-rule="evenodd" clip-rule="evenodd" d="M75.6511 23.3038C75.6511 23.8107 75.3957 24.0642 74.885 24.0642H65.8882C65.6709 24.0642 65.4943 24.0008 65.3585 23.8741C65.2226 23.7474 65.1547 23.5683 65.1547 23.3369C65.1547 23.1386 65.2009 22.9788 65.2933 22.8576C65.3856 22.7363 65.5296 22.6372 65.7252 22.56L66.426 22.3452C66.5999 22.2901 66.7357 22.1854 66.8335 22.0311C66.9313 21.8768 66.9802 21.6565 66.9802 21.37V11.8162C66.9802 11.662 66.9422 11.5325 66.8661 11.4278C66.79 11.3231 66.6488 11.2267 66.4423 11.1386L65.497 10.8245C65.2471 10.7033 65.0678 10.5738 64.9592 10.4361C64.8505 10.2983 64.7962 10.1303 64.7962 9.93194C64.7962 9.73359 64.8641 9.57106 64.9999 9.44434L65.0533 9.39979C65.1834 9.30276 65.353 9.25425 65.5622 9.25425H66.9924L66.9812 9.15766C66.9506 8.96448 66.8742 8.77905 66.752 8.60136C66.589 8.36445 66.4043 8.09723 66.1979 7.79971C65.9914 7.50219 65.8067 7.14682 65.6437 6.73359C65.4807 6.32037 65.3992 5.81073 65.3992 5.20467C65.3992 3.76114 65.8882 2.60687 66.8661 1.74186C67.844 0.876843 69.2348 0.444336 71.0386 0.444336C72.2012 0.444336 73.1655 0.631664 73.9316 1.00632C74.6976 1.38098 75.2708 1.8796 75.6511 2.50219C76.0314 3.12478 76.2215 3.80522 76.2215 4.54351C76.2215 5.41403 75.9961 6.06693 75.5451 6.50219C75.0942 6.93745 74.5156 7.15508 73.8093 7.15508C73.027 7.15508 72.3968 6.90164 71.9187 6.39475C71.4406 5.88786 71.2015 5.21569 71.2015 4.37822V2.90715C71.2015 2.52147 71.1255 2.23772 70.9734 2.05591C70.8212 1.87409 70.5876 1.78318 70.2725 1.78318C69.8705 1.78318 69.5662 1.92092 69.3598 2.1964C69.1533 2.47188 69.0501 2.86858 69.0501 3.38648C69.0501 3.91541 69.1724 4.41128 69.4168 4.87409C69.6613 5.3369 69.9628 5.7694 70.3214 6.17161C70.68 6.57381 71.0386 6.95949 71.3971 7.32863C71.7557 7.69778 72.0572 8.06142 72.3017 8.41954L72.3714 8.5269C72.5034 8.74144 72.5914 8.955 72.6354 9.16756L72.6503 9.25425H75.0643C75.3142 9.25425 75.5071 9.30659 75.6429 9.41128C75.7788 9.51596 75.8467 9.6785 75.8467 9.89888C75.8467 10.2295 75.7054 10.4994 75.4229 10.7088C75.1404 10.9182 74.6949 11.0228 74.0864 11.0228H72.9292V21.3204C72.9292 21.6289 72.9754 21.8658 73.0677 22.0311C73.1601 22.1964 73.3095 22.2956 73.516 22.3286L74.9176 22.5435C75.1676 22.5766 75.3523 22.6565 75.4718 22.7832C75.5913 22.9099 75.6511 23.0835 75.6511 23.3038ZM43.559 23.684C42.5811 24.1578 41.4402 24.3947 40.1363 24.3947C38.7563 24.3947 37.5203 24.1027 36.4283 23.5187C35.3363 22.9347 34.4752 22.089 33.845 20.9815C33.2148 19.8741 32.8997 18.527 32.8997 16.9402C32.8997 15.4085 33.2283 14.0394 33.8857 12.8328C34.5431 11.6262 35.4586 10.673 36.6321 9.97326C37.8056 9.27354 39.1746 8.92367 40.7393 8.92367C42.0758 8.92367 43.2031 9.12202 44.1213 9.51872C45.0395 9.91541 45.7403 10.4526 46.2238 11.1303C46.7074 11.808 46.9491 12.5655 46.9491 13.403C46.9491 14.2846 46.6965 14.976 46.1912 15.4774C45.686 15.9788 44.9987 16.2295 44.1294 16.2295C43.2385 16.2295 42.5621 15.9733 42.1003 15.4609C41.6385 14.9485 41.4076 14.246 41.4076 13.3534V12.2956C41.4076 11.7556 41.3098 11.3479 41.1142 11.0724C40.9186 10.797 40.6415 10.6592 40.283 10.6592C39.9244 10.6592 39.6011 10.8052 39.3132 11.0972C39.0252 11.3892 38.8025 11.8273 38.6449 12.4113C38.4874 12.9953 38.4086 13.7171 38.4086 14.5766C38.4086 15.8107 38.5906 16.8465 38.9546 17.684C39.3186 18.5215 39.8157 19.1496 40.4459 19.5683C41.0762 19.987 41.7933 20.1964 42.5974 20.1964C43.4014 20.1964 44.0751 20.0779 44.6184 19.841C45.1617 19.6041 45.58 19.2047 45.8734 18.6427C46.0364 18.4884 46.1641 18.3892 46.2564 18.3452C46.3488 18.3011 46.4384 18.279 46.5254 18.279C46.634 18.2901 46.7237 18.3424 46.7943 18.4361C46.8649 18.5297 46.8948 18.6757 46.8839 18.8741C46.797 19.954 46.4656 20.9071 45.8897 21.7336C45.3138 22.56 44.5369 23.2102 43.559 23.684ZM60.1266 23.3534C58.9042 24.0256 57.4835 24.3617 55.8645 24.3617C54.289 24.3617 52.9063 24.0339 51.7165 23.3782C50.5267 22.7226 49.6004 21.8162 48.9376 20.6592C48.2747 19.5022 47.9433 18.1633 47.9433 16.6427C47.9433 15.1881 48.291 13.8796 48.9865 12.7171C49.6819 11.5545 50.6435 10.6317 51.8713 9.94847C53.0991 9.26527 54.5117 8.92367 56.109 8.92367C57.6954 8.92367 59.0808 9.25425 60.2651 9.91541C61.4495 10.5766 62.3731 11.4912 63.0359 12.6592C63.6987 13.8273 64.0301 15.1771 64.0301 16.7088C64.0301 18.1633 63.6851 19.4664 62.9952 20.6179C62.3052 21.7694 61.349 22.6813 60.1266 23.3534ZM57.1032 22.6427C56.7664 22.7088 56.4377 22.56 56.1171 22.1964C55.7966 21.8328 55.4923 21.2212 55.2044 20.3617C54.9165 19.5022 54.6421 18.3727 54.3813 16.9733C54.1314 15.5738 53.9901 14.4223 53.9575 13.5187C53.9249 12.6151 53.9901 11.9319 54.1531 11.4691C54.3161 11.0063 54.566 10.7363 54.9029 10.6592C55.2397 10.5931 55.5684 10.7419 55.8889 11.1055C56.2095 11.4691 56.5164 12.0807 56.8098 12.9402C57.1032 13.7997 57.3803 14.9292 57.641 16.3286C57.9018 17.7281 58.0458 18.8824 58.073 19.7914C58.1001 20.7005 58.0295 21.3865 57.8611 21.8493C57.6927 22.3121 57.44 22.5766 57.1032 22.6427ZM86.2615 24.0642C86.7722 24.0642 87.0276 23.8107 87.0276 23.3038C87.0276 23.0835 86.9678 22.9099 86.8483 22.7832C86.7288 22.6565 86.544 22.5766 86.2941 22.5435L84.8924 22.3286C84.686 22.2956 84.5366 22.1964 84.4442 22.0311C84.3519 21.8658 84.3057 21.6289 84.3057 21.3204V11.0228H85.4629C86.0714 11.0228 86.5169 10.9182 86.7994 10.7088C87.0819 10.4994 87.2231 10.2295 87.2231 9.89888C87.2231 9.6785 87.1552 9.51596 87.0194 9.41128C86.8836 9.30659 86.6907 9.25425 86.4408 9.25425H84.0268L84.0119 9.16756C83.9679 8.955 83.8799 8.74144 83.7479 8.5269L83.6782 8.41954C83.4337 8.06142 83.1322 7.69778 82.7736 7.32863C82.415 6.95949 82.0565 6.57381 81.6979 6.17161C81.3393 5.7694 81.0378 5.3369 80.7933 4.87409C80.5488 4.41128 80.4266 3.91541 80.4266 3.38648C80.4266 2.86858 80.5298 2.47188 80.7363 2.1964C80.9427 1.92092 81.247 1.78318 81.649 1.78318C81.9641 1.78318 82.1977 1.87409 82.3498 2.05591C82.502 2.23772 82.578 2.52147 82.578 2.90715V4.37822C82.578 5.21569 82.8171 5.88786 83.2952 6.39475C83.7733 6.90164 84.4035 7.15508 85.1858 7.15508C85.8921 7.15508 86.4707 6.93745 86.9216 6.50219C87.3725 6.06693 87.598 5.41403 87.598 4.54351C87.598 3.80522 87.4079 3.12478 87.0276 2.50219C86.6473 1.8796 86.0741 1.38098 85.308 1.00632C84.542 0.631664 83.5777 0.444336 82.415 0.444336C80.6113 0.444336 79.2205 0.876843 78.2426 1.74186C77.2647 2.60687 76.7757 3.76114 76.7757 5.20467C76.7757 5.81073 76.8572 6.32037 77.0202 6.73359C77.1832 7.14682 77.3679 7.50219 77.5743 7.79971C77.7808 8.09723 77.9655 8.36445 78.1285 8.60136C78.2507 8.77905 78.3271 8.96448 78.3577 9.15766L78.3689 9.25425H76.9387C76.7295 9.25425 76.5599 9.30276 76.4297 9.39979L76.3764 9.44434C76.2406 9.57106 76.1726 9.73359 76.1726 9.93194C76.1726 10.1303 76.227 10.2983 76.3356 10.4361C76.4443 10.5738 76.6236 10.7033 76.8735 10.8245L77.8188 11.1386C78.0253 11.2267 78.1665 11.3231 78.2426 11.4278C78.3186 11.5325 78.3567 11.662 78.3567 11.8162V21.37C78.3567 21.6565 78.3078 21.8768 78.21 22.0311C78.1122 22.1854 77.9764 22.2901 77.8025 22.3452L77.1017 22.56C76.9061 22.6372 76.7621 22.7363 76.6698 22.8576C76.5774 22.9788 76.5312 23.1386 76.5312 23.3369C76.5312 23.5683 76.5991 23.7474 76.7349 23.8741C76.8708 24.0008 77.0473 24.0642 77.2647 24.0642H86.2615ZM99.0234 23.5848C97.9694 24.1248 96.7524 24.3947 95.3725 24.3947C93.8513 24.3947 92.5148 24.0779 91.363 23.4443C90.2112 22.8107 89.3121 21.9237 88.6656 20.7832C88.0191 19.6427 87.6958 18.3231 87.6958 16.8245C87.6958 15.2487 88.0082 13.8686 88.633 12.684C89.2578 11.4994 90.1623 10.5766 91.3467 9.91541C92.5311 9.25425 93.9545 8.92367 95.617 8.92367C97.0295 8.92367 98.2465 9.20191 99.2679 9.75839C100.289 10.3149 101.074 11.0697 101.623 12.0228C102.172 12.976 102.446 14.0366 102.446 15.2047C102.446 15.7116 102.31 16.111 102.039 16.403L101.974 16.4678C101.706 16.7166 101.337 16.841 100.865 16.841H93.4144L93.4304 16.9173C93.628 17.8247 93.9657 18.5514 94.4435 19.0972C95.2584 20.0284 96.345 20.4939 97.7032 20.4939C98.5725 20.4939 99.3412 20.2956 100.009 19.8989C100.678 19.5022 101.126 18.9512 101.354 18.246C101.484 18.1027 101.601 18.0063 101.705 17.9567C101.808 17.9071 101.897 17.8824 101.973 17.8824C102.082 17.8824 102.174 17.9264 102.251 18.0146C102.327 18.1027 102.365 18.2515 102.365 18.4609C102.365 19.5408 102.071 20.5297 101.484 21.4278C100.898 22.3259 100.077 23.0449 99.0234 23.5848ZM93.2443 15.516C93.2288 15.2625 93.2211 14.9989 93.2211 14.7253C93.2211 13.6895 93.2971 12.8741 93.4492 12.279C93.6014 11.684 93.7969 11.2625 94.036 11.0146C94.275 10.7667 94.5412 10.6427 94.8346 10.6427C95.2149 10.6427 95.5708 10.9678 95.9022 11.6179C96.2336 12.268 96.3993 13.3479 96.3993 14.8576C96.3993 15.3204 96.1928 15.5518 95.7799 15.5518H93.2464L93.2443 15.516ZM114.605 23.5848C113.551 24.1248 112.334 24.3947 110.954 24.3947C109.433 24.3947 108.096 24.0779 106.945 23.4443C105.793 22.8107 104.894 21.9237 104.247 20.7832C103.601 19.6427 103.277 18.3231 103.277 16.8245C103.277 15.2487 103.59 13.8686 104.215 12.684C104.839 11.4994 105.744 10.5766 106.928 9.91541C108.113 9.25425 109.536 8.92367 111.198 8.92367C112.611 8.92367 113.828 9.20191 114.849 9.75839C115.871 10.3149 116.656 11.0697 117.205 12.0228C117.753 12.976 118.028 14.0366 118.028 15.2047C118.028 15.7116 117.892 16.111 117.62 16.403L117.555 16.4678C117.288 16.7166 116.918 16.841 116.447 16.841H108.996L109.012 16.9173C109.21 17.8247 109.547 18.5514 110.025 19.0972C110.84 20.0284 111.926 20.4939 113.285 20.4939C114.154 20.4939 114.923 20.2956 115.591 19.8989C116.259 19.5022 116.707 18.9512 116.936 18.246C117.066 18.1027 117.183 18.0063 117.286 17.9567C117.389 17.9071 117.479 17.8824 117.555 17.8824C117.664 17.8824 117.756 17.9264 117.832 18.0146C117.908 18.1027 117.946 18.2515 117.946 18.4609C117.946 19.5408 117.653 20.5297 117.066 21.4278C116.479 22.3259 115.659 23.0449 114.605 23.5848ZM108.826 15.516C108.81 15.2625 108.803 14.9989 108.803 14.7253C108.803 13.6895 108.879 12.8741 109.031 12.279C109.183 11.684 109.378 11.2625 109.618 11.0146C109.857 10.7667 110.123 10.6427 110.416 10.6427C110.796 10.6427 111.152 10.9678 111.484 11.6179C111.815 12.268 111.981 13.3479 111.981 14.8576C111.981 15.3204 111.774 15.5518 111.361 15.5518H108.828L108.826 15.516ZM128.5 23.8576C128.364 23.9953 128.165 24.0642 127.905 24.0642H119.755C119.516 24.0642 119.329 23.9981 119.193 23.8658C119.057 23.7336 118.989 23.5518 118.989 23.3204C118.989 23.1441 119.03 22.9981 119.111 22.8824C119.193 22.7666 119.304 22.6592 119.446 22.56L119.82 22.4113C119.962 22.3452 120.06 22.2405 120.114 22.0972C120.168 21.954 120.195 21.7171 120.195 21.3865V12.9898C120.195 12.7253 120.165 12.5352 120.106 12.4195C120.046 12.3038 119.945 12.2129 119.804 12.1468L119.38 12.0972C119.228 12.0091 119.117 11.9154 119.046 11.8162C118.976 11.7171 118.94 11.5903 118.94 11.4361C118.94 11.2598 118.995 11.1027 119.103 10.965C119.212 10.8273 119.397 10.7088 119.658 10.6096L124.286 9.27078C124.558 9.16059 124.786 9.08345 124.971 9.03938C125.156 8.9953 125.313 8.97326 125.444 8.97326C125.628 8.97326 125.767 9.03938 125.859 9.17161L125.889 9.21956C125.965 9.35778 126.018 9.57871 126.047 9.88235L126.171 12.4508L126.199 12.356C126.254 12.177 126.315 12.0054 126.381 11.841C126.777 10.8548 127.302 10.122 127.954 9.64268C128.605 9.16334 129.317 8.92367 130.089 8.92367C131.023 8.92367 131.74 9.23772 132.24 9.86582C132.74 10.4939 132.99 11.4471 132.99 12.7253C132.99 13.9925 132.729 14.9237 132.207 15.5187C131.686 16.1138 131.012 16.4113 130.186 16.4113C129.382 16.4113 128.787 16.2074 128.402 15.7997C128.016 15.392 127.812 14.8135 127.791 14.0642L127.774 13.403C127.763 13.1496 127.714 12.9512 127.628 12.808C127.541 12.6647 127.399 12.5931 127.204 12.5931C127.008 12.5931 126.837 12.695 126.69 12.8989C126.544 13.1027 126.432 13.414 126.356 13.8328C126.28 14.2515 126.242 14.7859 126.242 15.4361V21.2543C126.242 21.5628 126.291 21.808 126.389 21.9898C126.487 22.1716 126.639 22.2846 126.845 22.3286L128.068 22.5766C128.296 22.6096 128.459 22.695 128.557 22.8328C128.654 22.9705 128.703 23.133 128.703 23.3204C128.703 23.5408 128.635 23.7198 128.5 23.8576ZM141.53 24.3617C143.149 24.3617 144.57 24.0256 145.792 23.3534C147.015 22.6813 147.971 21.7694 148.661 20.6179C149.351 19.4664 149.696 18.1633 149.696 16.7088C149.696 15.1771 149.365 13.8273 148.702 12.6592C148.039 11.4912 147.115 10.5766 145.931 9.91541C144.747 9.25425 143.361 8.92367 141.775 8.92367C140.178 8.92367 138.765 9.26527 137.537 9.94847C136.309 10.6317 135.348 11.5545 134.652 12.7171C133.957 13.8796 133.609 15.1881 133.609 16.6427C133.609 18.1633 133.941 19.5022 134.603 20.6592C135.266 21.8162 136.193 22.7226 137.382 23.3782C138.572 24.0339 139.955 24.3617 141.53 24.3617ZM141.783 22.1964C142.104 22.56 142.432 22.7088 142.769 22.6427C143.106 22.5766 143.358 22.3121 143.527 21.8493C143.695 21.3865 143.766 20.7005 143.739 19.7914C143.712 18.8824 143.568 17.7281 143.307 16.3286C143.046 14.9292 142.769 13.7997 142.476 12.9402C142.182 12.0807 141.875 11.4691 141.555 11.1055C141.234 10.7419 140.906 10.5931 140.569 10.6592C140.232 10.7363 139.982 11.0063 139.819 11.4691C139.656 11.9319 139.591 12.6151 139.623 13.5187C139.656 14.4223 139.797 15.5738 140.047 16.9733C140.308 18.3727 140.582 19.5022 140.87 20.3617C141.158 21.2212 141.462 21.8328 141.783 22.1964ZM162.621 24.3947C163.534 24.3947 164.283 24.2267 164.87 23.8906C165.457 23.5545 165.894 23.1551 166.182 22.6923C166.47 22.2295 166.614 21.8052 166.614 21.4195C166.614 21.2543 166.579 21.1165 166.508 21.0063C166.437 20.8961 166.342 20.841 166.223 20.841C166.168 20.841 166.12 20.852 166.076 20.8741C166.033 20.8961 165.995 20.9292 165.962 20.9733C165.908 21.1716 165.824 21.3093 165.709 21.3865C165.595 21.4636 165.473 21.5022 165.343 21.5022C165.158 21.5022 165.019 21.4388 164.927 21.3121C164.835 21.1854 164.789 21.0173 164.789 20.808V13.5022C164.789 12.0476 164.297 10.9209 163.314 10.122C162.33 9.32312 160.79 8.92367 158.693 8.92367C157.063 8.92367 155.702 9.12753 154.61 9.53524C153.518 9.94296 152.698 10.4636 152.149 11.0972C151.6 11.7308 151.326 12.3782 151.326 13.0394C151.326 13.7446 151.53 14.2818 151.937 14.6509C152.345 15.0201 152.934 15.2047 153.705 15.2047C154.651 15.2047 155.395 14.9485 155.938 14.4361C156.482 13.9237 156.753 13.2598 156.753 12.4443V11.1881C156.753 10.8796 156.848 10.6399 157.039 10.4691C157.229 10.2983 157.465 10.2129 157.748 10.2129C158.052 10.2129 158.294 10.3259 158.473 10.5518C158.652 10.7777 158.742 11.0835 158.742 11.4691L158.741 16.2873L158.655 16.2685C158.392 16.2178 158.089 16.1889 157.744 16.1817L157.568 16.1799C155.232 16.1799 153.491 16.5766 152.345 17.37C151.198 18.1633 150.625 19.2708 150.625 20.6923C150.625 21.7722 151.019 22.6592 151.807 23.3534C152.594 24.0476 153.64 24.3947 154.944 24.3947C155.922 24.3947 156.835 24.1936 157.682 23.7914C158.318 23.4898 158.834 23.0936 159.232 22.6029L159.254 22.5743L159.278 22.6482C159.403 23.0055 159.633 23.3256 159.967 23.6085L160.07 23.6923C160.673 24.1606 161.523 24.3947 162.621 24.3947ZM157.006 21.279C157.272 21.6372 157.623 21.8162 158.057 21.8162L158.15 21.813C158.336 21.8001 158.515 21.7484 158.688 21.6581L158.741 21.628V17.3865L158.66 17.3617C158.476 17.3121 158.258 17.2873 158.008 17.2873C157.585 17.2873 157.245 17.4857 156.99 17.8824C156.734 18.279 156.607 18.8631 156.607 19.6344C156.607 20.3727 156.74 20.9209 157.006 21.279ZM174.111 24.4443C176.045 24.4443 177.529 23.9981 178.561 23.1055C179.593 22.2129 180.109 20.9953 180.109 19.4526C180.109 18.516 179.935 17.695 179.588 16.9898C179.24 16.2846 178.632 15.6592 177.762 15.1138C176.893 14.5683 175.671 14.0532 174.095 13.5683C173.508 13.381 173.055 13.1909 172.734 12.9981C172.414 12.8052 172.194 12.5986 172.074 12.3782C171.955 12.1578 171.895 11.9209 171.895 11.6675C171.895 11.2928 172.031 10.9898 172.302 10.7584C172.574 10.527 172.976 10.4113 173.508 10.4113C174.247 10.4113 174.945 10.6592 175.603 11.1551C176.26 11.6509 176.985 12.4994 177.779 13.7005C177.985 13.954 178.191 14.1386 178.398 14.2543C178.604 14.37 178.8 14.4058 178.985 14.3617C179.213 14.2956 179.354 14.1441 179.408 13.9071C179.463 13.6702 179.452 13.3314 179.376 12.8906L178.952 9.84929C178.909 9.52974 178.827 9.30384 178.708 9.17161C178.588 9.03938 178.431 8.97326 178.235 8.97326C178.061 8.97326 177.844 9.03387 177.583 9.15508C177.322 9.27629 177.064 9.40026 176.809 9.52698C176.553 9.6537 176.361 9.71706 176.23 9.71706C176.111 9.71706 175.934 9.65095 175.701 9.51872C175.467 9.38648 175.138 9.25425 174.714 9.12202C174.291 8.98979 173.742 8.92367 173.068 8.92367C171.949 8.92367 170.941 9.12753 170.045 9.53524C169.148 9.94296 168.442 10.5242 167.926 11.279C167.41 12.0339 167.152 12.9347 167.152 13.9815C167.152 14.9071 167.345 15.7171 167.73 16.4113C168.116 17.1055 168.706 17.7005 169.499 18.1964C170.292 18.6923 171.292 19.0945 172.498 19.403C173.28 19.6124 173.88 19.8245 174.299 20.0394C174.717 20.2543 175.005 20.4884 175.163 20.7419C175.32 20.9953 175.399 21.2763 175.399 21.5848C175.399 21.9925 175.263 22.3286 174.992 22.5931C174.72 22.8576 174.307 22.9898 173.753 22.9898C173.231 22.9898 172.734 22.8768 172.261 22.6509C171.789 22.4251 171.303 22.0366 170.803 21.4857C170.303 20.9347 169.743 20.1799 169.124 19.2212C168.939 18.9678 168.73 18.7914 168.496 18.6923C168.263 18.5931 168.027 18.5986 167.787 18.7088C167.559 18.797 167.413 18.9843 167.347 19.2708C167.282 19.5573 167.299 19.9099 167.396 20.3286L167.902 23.6179C167.978 23.9485 168.086 24.1689 168.228 24.279C168.369 24.3892 168.521 24.4443 168.684 24.4443C168.869 24.4443 169.094 24.3837 169.36 24.2625L170.159 23.8989C170.425 23.7777 170.64 23.7171 170.803 23.7171C170.966 23.7171 171.18 23.7777 171.447 23.8989C171.713 24.0201 172.06 24.1413 172.49 24.2625C172.919 24.3837 173.459 24.4443 174.111 24.4443ZM189.563 23.8245C188.845 24.2047 187.998 24.3947 187.02 24.3947C185.368 24.3947 184.127 23.9925 183.296 23.1881C182.464 22.3837 182.049 21.1165 182.049 19.3865V11.9154C182.049 11.684 182.027 11.5077 181.984 11.3865C181.94 11.2653 181.832 11.1661 181.658 11.089L180.892 10.841C180.707 10.7529 180.587 10.6454 180.533 10.5187C180.479 10.392 180.452 10.235 180.452 10.0476C180.452 9.81624 180.533 9.62615 180.696 9.47739C180.859 9.32863 181.06 9.25425 181.299 9.25425H182.098C182.196 9.25425 182.299 9.21569 182.407 9.13855C182.516 9.06142 182.663 8.90715 182.847 8.67574L185.863 6.14682C186.08 5.88235 186.297 5.68125 186.515 5.54351C186.732 5.40577 186.949 5.3369 187.167 5.3369C187.417 5.3369 187.612 5.41403 187.753 5.5683L187.798 5.62299C187.909 5.77753 187.965 6.00173 187.965 6.29558L187.965 9.25425H191.372C191.611 9.25425 191.795 9.30659 191.926 9.41128C192.056 9.51596 192.121 9.6785 192.121 9.89888C192.121 10.2074 191.986 10.4719 191.714 10.6923L191.653 10.7378C191.379 10.9278 190.965 11.0228 190.41 11.0228H187.965L187.965 18.56C187.965 19.3865 188.104 19.9981 188.381 20.3947C188.658 20.7914 189.063 20.9898 189.595 20.9898C189.823 20.9898 190.035 20.9402 190.231 20.841C190.426 20.7419 190.603 20.6124 190.76 20.4526C190.918 20.2928 191.067 20.1138 191.209 19.9154C191.35 19.7171 191.486 19.5187 191.616 19.3204C191.725 19.2763 191.82 19.2956 191.901 19.3782C191.983 19.4609 192.018 19.6289 192.007 19.8824C191.931 20.7749 191.684 21.56 191.266 22.2377C190.847 22.9154 190.28 23.4443 189.563 23.8245ZM200.238 24.3947C201.618 24.3947 202.835 24.1248 203.889 23.5848C204.943 23.0449 205.763 22.3259 206.35 21.4278C206.937 20.5297 207.23 19.5408 207.23 18.4609C207.23 18.2515 207.192 18.1027 207.116 18.0146C207.04 17.9264 206.948 17.8824 206.839 17.8824C206.763 17.8824 206.673 17.9071 206.57 17.9567C206.467 18.0063 206.35 18.1027 206.22 18.246C205.992 18.9512 205.543 19.5022 204.875 19.8989C204.207 20.2956 203.438 20.4939 202.569 20.4939C201.211 20.4939 200.124 20.0284 199.309 19.0972C198.831 18.5514 198.494 17.8247 198.296 16.9173L198.28 16.841H205.731C206.202 16.841 206.572 16.7166 206.84 16.4678L206.904 16.403C207.176 16.111 207.312 15.7116 207.312 15.2047C207.312 14.0366 207.037 12.976 206.489 12.0228C205.94 11.0697 205.155 10.3149 204.134 9.75839C203.112 9.20191 201.895 8.92367 200.483 8.92367C198.82 8.92367 197.397 9.25425 196.212 9.91541C195.028 10.5766 194.123 11.4994 193.499 12.684C192.874 13.8686 192.561 15.2487 192.561 16.8245C192.561 18.3231 192.885 19.6427 193.531 20.7832C194.178 21.9237 195.077 22.8107 196.229 23.4443C197.38 24.0779 198.717 24.3947 200.238 24.3947ZM198.087 14.7253C198.087 14.9989 198.094 15.2625 198.11 15.516L198.112 15.5518H200.646C201.059 15.5518 201.265 15.3204 201.265 14.8576C201.265 13.3479 201.099 12.268 200.768 11.6179C200.436 10.9678 200.081 10.6427 199.7 10.6427C199.407 10.6427 199.141 10.7667 198.902 11.0146C198.663 11.2625 198.467 11.684 198.315 12.279C198.163 12.8741 198.087 13.6895 198.087 14.7253ZM217.189 24.0642C217.45 24.0642 217.648 23.9953 217.784 23.8576C217.919 23.7198 217.987 23.5408 217.987 23.3204C217.987 23.133 217.939 22.9705 217.841 22.8328C217.743 22.695 217.58 22.6096 217.352 22.5766L216.129 22.3286C215.923 22.2846 215.771 22.1716 215.673 21.9898C215.575 21.808 215.526 21.5628 215.526 21.2543V15.4361C215.526 14.7859 215.564 14.2515 215.64 13.8328C215.716 13.414 215.828 13.1027 215.975 12.8989C216.121 12.695 216.292 12.5931 216.488 12.5931C216.684 12.5931 216.825 12.6647 216.912 12.808C216.999 12.9512 217.048 13.1496 217.058 13.403L217.075 14.0642C217.096 14.8135 217.3 15.392 217.686 15.7997C218.072 16.2074 218.667 16.4113 219.471 16.4113C220.296 16.4113 220.97 16.1138 221.492 15.5187C222.013 14.9237 222.274 13.9925 222.274 12.7253C222.274 11.4471 222.024 10.4939 221.524 9.86582C221.024 9.23772 220.307 8.92367 219.373 8.92367C218.601 8.92367 217.89 9.16334 217.238 9.64268C216.586 10.122 216.061 10.8548 215.665 11.841C215.599 12.0054 215.538 12.177 215.483 12.356L215.455 12.4512L215.331 9.88235C215.302 9.57871 215.249 9.35778 215.173 9.21956L215.143 9.17161C215.051 9.03938 214.912 8.97326 214.728 8.97326C214.597 8.97326 214.44 8.9953 214.255 9.03938C214.07 9.08345 213.842 9.16059 213.57 9.27078L208.942 10.6096C208.681 10.7088 208.496 10.8273 208.387 10.965C208.279 11.1027 208.225 11.2598 208.225 11.4361C208.225 11.5903 208.26 11.7171 208.33 11.8162C208.401 11.9154 208.512 12.0091 208.665 12.0972L209.088 12.1468C209.23 12.2129 209.33 12.3038 209.39 12.4195C209.45 12.5352 209.48 12.7253 209.48 12.9898V21.3865C209.48 21.7171 209.452 21.954 209.398 22.0972C209.344 22.2405 209.246 22.3452 209.105 22.4113L208.73 22.56C208.589 22.6592 208.477 22.7666 208.396 22.8824C208.314 22.9981 208.273 23.1441 208.273 23.3204C208.273 23.5518 208.341 23.7336 208.477 23.8658C208.613 23.9981 208.8 24.0642 209.039 24.0642H217.189ZM234.351 23.1055C233.319 23.9981 231.836 24.4443 229.902 24.4443C229.25 24.4443 228.709 24.3837 228.28 24.2625C227.851 24.1413 227.503 24.0201 227.237 23.8989C226.971 23.7777 226.756 23.7171 226.593 23.7171C226.43 23.7171 226.216 23.7777 225.949 23.8989L225.151 24.2625C224.884 24.3837 224.659 24.4443 224.474 24.4443C224.311 24.4443 224.159 24.3892 224.018 24.279C223.877 24.1689 223.768 23.9485 223.692 23.6179L223.187 20.3286C223.089 19.9099 223.073 19.5573 223.138 19.2708C223.203 18.9843 223.35 18.797 223.578 18.7088C223.817 18.5986 224.053 18.5931 224.287 18.6923C224.52 18.7914 224.73 18.9678 224.914 19.2212C225.534 20.1799 226.093 20.9347 226.593 21.4857C227.093 22.0366 227.579 22.4251 228.052 22.6509C228.525 22.8768 229.022 22.9898 229.543 22.9898C230.097 22.9898 230.51 22.8576 230.782 22.5931C231.054 22.3286 231.189 21.9925 231.189 21.5848C231.189 21.2763 231.111 20.9953 230.953 20.7419C230.795 20.4884 230.508 20.2543 230.089 20.0394C229.671 19.8245 229.071 19.6124 228.288 19.403C227.082 19.0945 226.082 18.6923 225.289 18.1964C224.496 17.7005 223.907 17.1055 223.521 16.4113C223.135 15.7171 222.942 14.9071 222.942 13.9815C222.942 12.9347 223.2 12.0339 223.716 11.279C224.233 10.5242 224.939 9.94296 225.835 9.53524C226.732 9.12753 227.739 8.92367 228.859 8.92367C229.532 8.92367 230.081 8.98979 230.505 9.12202C230.929 9.25425 231.257 9.38648 231.491 9.51872C231.724 9.65095 231.901 9.71706 232.021 9.71706C232.151 9.71706 232.344 9.6537 232.599 9.52698C232.855 9.40026 233.113 9.27629 233.373 9.15508C233.634 9.03387 233.851 8.97326 234.025 8.97326C234.221 8.97326 234.378 9.03938 234.498 9.17161C234.617 9.30384 234.699 9.52974 234.742 9.84929L235.166 12.8906C235.242 13.3314 235.253 13.6702 235.199 13.9071C235.144 14.1441 235.003 14.2956 234.775 14.3617C234.59 14.4058 234.395 14.37 234.188 14.2543C233.982 14.1386 233.775 13.954 233.569 13.7005C232.776 12.4994 232.05 11.6509 231.393 11.1551C230.736 10.6592 230.038 10.4113 229.299 10.4113C228.766 10.4113 228.364 10.527 228.093 10.7584C227.821 10.9898 227.685 11.2928 227.685 11.6675C227.685 11.9209 227.745 12.1578 227.864 12.3782C227.984 12.5986 228.204 12.8052 228.525 12.9981C228.845 13.1909 229.299 13.381 229.885 13.5683C231.461 14.0532 232.683 14.5683 233.553 15.1138C234.422 15.6592 235.03 16.2846 235.378 16.9898C235.726 17.695 235.9 18.516 235.9 19.4526C235.9 20.9953 235.384 22.2129 234.351 23.1055Z" fill="white"/>
<path fill-rule="evenodd" clip-rule="evenodd" d="M14.389 4.44702C10.8746 0.935462 5.6652 0.429955 2.77627 3.322C-0.114167 6.21254 0.391322 11.4221 3.89974 14.9352C4.83572 15.8712 5.9142 16.5867 7.05267 17.0997C7.42616 14.9292 8.49714 12.8426 10.1231 11.1296C9.58462 10.9376 9.03263 10.7756 8.45664 10.6181C5.04572 9.6821 3.35075 6.83655 2.95476 3.5005C3.28228 3.89436 3.58048 4.30747 3.8778 4.71937C4.45466 5.51854 5.02821 6.31312 5.8062 6.95355C7.01644 7.95009 8.34488 8.33478 9.79821 8.75564C9.85432 8.77188 9.91062 8.78819 9.96711 8.80458C10.6556 9.00409 11.2541 9.29959 11.8031 9.6446C13.246 8.59008 14.8735 7.88807 16.5535 7.59856C16.042 6.46005 15.325 5.38303 14.389 4.44702ZM8.44614 17.9337C8.66964 15.7602 9.72261 13.6347 11.4101 11.9471C14.9245 8.43558 20.1339 7.92857 23.0228 10.8221C25.9132 13.7127 25.4093 18.9222 21.8963 22.4353C20.2089 24.1228 18.0834 25.1758 15.91 25.4008C15.6205 25.4293 15.334 25.4443 15.0535 25.4443C13.1845 25.4443 11.5151 24.7888 10.2851 23.5588C8.86913 22.1443 8.21515 20.1463 8.44614 17.9337ZM13.5865 19.7172C14.7385 18.8382 15.985 18.4902 17.3409 18.1197C20.7519 17.1837 22.4453 14.3382 22.8428 11.0021C22.5181 11.3938 22.222 11.8041 21.9269 12.2132C21.3483 13.0152 20.7731 13.8125 19.9914 14.4552C18.7774 15.4533 17.4459 15.8387 15.9861 16.2611L15.8305 16.3062C12.4931 17.2752 10.8431 20.0968 10.4621 23.3803C10.7909 22.9853 11.092 22.5752 11.3916 22.1673C12.042 21.2817 12.6849 20.4063 13.5865 19.7172Z" fill="#0E8784"/>
</svg>
